<svg width="79" height="54" viewBox="0 0 79 54" fill="none" xmlns="http://www.w3.org/2000/svg">
<mask id="mask0_6854_154" style="mask-type:luminance" maskUnits="userSpaceOnUse" x="27" y="1" width="25" height="26">
<path fill-rule="evenodd" clip-rule="evenodd" d="M27.8335 1.16699H51.7499V26.2562H27.8335V1.16699Z" fill="white"/>
</mask>
<g mask="url(#mask0_6854_154)">
<path fill-rule="evenodd" clip-rule="evenodd" d="M41.5033 17.8399C42.908 17.8399 44.0513 18.975 44.0513 20.3704V23.959C44.0513 24.2589 44.2917 24.4992 44.5997 24.5062H46.8233C48.5757 24.5062 50.0002 23.0992 50.0002 21.3702V11.1922C49.992 10.5972 49.7085 10.0372 49.222 9.66504L41.5302 3.53071C40.4977 2.71287 39.0533 2.71287 38.0173 3.53304L30.378 9.66271C29.8728 10.0465 29.5893 10.6065 29.5835 11.212V21.3702C29.5835 23.0992 31.008 24.5062 32.7603 24.5062H35.005C35.3212 24.5062 35.5778 24.2554 35.5778 23.9474C35.5778 23.8797 35.586 23.812 35.6 23.7479V20.3704C35.6 18.9832 36.7363 17.8492 38.1305 17.8399H41.5033ZM46.8233 26.2562H44.5787C43.293 26.2259 42.3013 25.2167 42.3013 23.959V20.3704C42.3013 19.9399 41.9432 19.5899 41.5033 19.5899H38.1363C37.7058 19.5922 37.35 19.9434 37.35 20.3704V23.9474C37.35 24.0349 37.3383 24.1189 37.3138 24.1982C37.1878 25.3532 36.2008 26.2562 35.005 26.2562H32.7603C30.0432 26.2562 27.8335 24.064 27.8335 21.3702V11.2039C27.8452 10.0442 28.3795 8.98254 29.3023 8.28371L36.9265 2.16454C38.6053 0.83454 40.9445 0.83454 42.6198 2.16221L50.2988 8.28721C51.2007 8.97437 51.735 10.0337 51.7502 11.1794V21.3702C51.7502 24.064 49.5405 26.2562 46.8233 26.2562Z" fill="black"/>
</g>
<path d="M24.0946 46H22.7386L21.9826 43.924H18.6586L17.9026 46H16.5826L19.5706 38.08H21.1066L24.0946 46ZM19.0186 42.88H21.6226L20.3266 39.184L19.0186 42.88ZM28.3821 39.88C28.8621 39.88 29.2701 39.952 29.6061 40.096C29.9501 40.232 30.2381 40.428 30.4701 40.684C30.7021 40.94 30.8781 41.232 30.9981 41.56L29.7861 42.04C29.6821 41.672 29.5141 41.392 29.2821 41.2C29.0581 41 28.7621 40.9 28.3941 40.9C28.0341 40.9 27.7261 40.984 27.4701 41.152C27.2141 41.312 27.0181 41.548 26.8821 41.86C26.7541 42.172 26.6901 42.556 26.6901 43.012C26.6901 43.46 26.7581 43.84 26.8941 44.152C27.0301 44.464 27.2261 44.7 27.4821 44.86C27.7381 45.02 28.0421 45.1 28.3941 45.1C28.6661 45.1 28.9021 45.056 29.1021 44.968C29.3021 44.872 29.4661 44.74 29.5941 44.572C29.7301 44.396 29.8221 44.184 29.8701 43.936L31.0341 44.332C30.9221 44.692 30.7461 45.008 30.5061 45.28C30.2741 45.544 29.9821 45.752 29.6301 45.904C29.2781 46.048 28.8741 46.12 28.4181 46.12C27.8261 46.12 27.3021 45.996 26.8461 45.748C26.3901 45.5 26.0341 45.144 25.7781 44.68C25.5301 44.208 25.4061 43.648 25.4061 43C25.4061 42.352 25.5301 41.796 25.7781 41.332C26.0341 40.86 26.3861 40.5 26.8341 40.252C27.2901 40.004 27.8061 39.88 28.3821 39.88ZM35.7204 39.88C36.2004 39.88 36.6084 39.952 36.9444 40.096C37.2884 40.232 37.5764 40.428 37.8084 40.684C38.0404 40.94 38.2164 41.232 38.3364 41.56L37.1244 42.04C37.0204 41.672 36.8524 41.392 36.6204 41.2C36.3964 41 36.1004 40.9 35.7324 40.9C35.3724 40.9 35.0644 40.984 34.8084 41.152C34.5524 41.312 34.3564 41.548 34.2204 41.86C34.0924 42.172 34.0284 42.556 34.0284 43.012C34.0284 43.46 34.0964 43.84 34.2324 44.152C34.3684 44.464 34.5644 44.7 34.8204 44.86C35.0764 45.02 35.3804 45.1 35.7324 45.1C36.0044 45.1 36.2404 45.056 36.4404 44.968C36.6404 44.872 36.8044 44.74 36.9324 44.572C37.0684 44.396 37.1604 44.184 37.2084 43.936L38.3724 44.332C38.2604 44.692 38.0844 45.008 37.8444 45.28C37.6124 45.544 37.3204 45.752 36.9684 45.904C36.6164 46.048 36.2124 46.12 35.7564 46.12C35.1644 46.12 34.6404 45.996 34.1844 45.748C33.7284 45.5 33.3724 45.144 33.1164 44.68C32.8684 44.208 32.7444 43.648 32.7444 43C32.7444 42.352 32.8684 41.796 33.1164 41.332C33.3724 40.86 33.7244 40.5 34.1724 40.252C34.6284 40.004 35.1444 39.88 35.7204 39.88ZM42.6027 46.12C42.2107 46.12 41.8467 46.048 41.5107 45.904C41.1827 45.76 40.9187 45.528 40.7187 45.208C40.5187 44.888 40.4187 44.472 40.4187 43.96V40H41.7027V43.636C41.7027 44.18 41.8187 44.556 42.0507 44.764C42.2827 44.964 42.6067 45.064 43.0227 45.064C43.2227 45.064 43.4147 45.032 43.5987 44.968C43.7907 44.896 43.9627 44.788 44.1147 44.644C44.2667 44.492 44.3827 44.3 44.4627 44.068C44.5507 43.836 44.5947 43.564 44.5947 43.252V40H45.8787V46H44.7507L44.6907 45.028C44.4827 45.404 44.2027 45.68 43.8507 45.856C43.4987 46.032 43.0827 46.12 42.6027 46.12ZM51.1247 46.12C50.5247 46.12 49.9967 45.996 49.5407 45.748C49.0847 45.5 48.7287 45.144 48.4727 44.68C48.2247 44.208 48.1007 43.648 48.1007 43C48.1007 42.352 48.2247 41.796 48.4727 41.332C48.7287 40.86 49.0807 40.5 49.5287 40.252C49.9767 40.004 50.4847 39.88 51.0527 39.88C51.6367 39.88 52.1327 40 52.5407 40.24C52.9487 40.48 53.2607 40.808 53.4767 41.224C53.6927 41.64 53.8007 42.112 53.8007 42.64C53.8007 42.784 53.7967 42.92 53.7887 43.048C53.7807 43.176 53.7687 43.288 53.7527 43.384H48.9287V42.4H53.1887L52.5527 42.592C52.5527 42.048 52.4167 41.632 52.1447 41.344C51.8727 41.048 51.5007 40.9 51.0287 40.9C50.6847 40.9 50.3847 40.98 50.1287 41.14C49.8727 41.3 49.6767 41.54 49.5407 41.86C49.4047 42.172 49.3367 42.556 49.3367 43.012C49.3367 43.46 49.4087 43.84 49.5527 44.152C49.6967 44.464 49.9007 44.7 50.1647 44.86C50.4287 45.02 50.7407 45.1 51.1007 45.1C51.5007 45.1 51.8247 45.024 52.0727 44.872C52.3207 44.72 52.5167 44.508 52.6607 44.236L53.6807 44.716C53.5367 45.004 53.3407 45.256 53.0927 45.472C52.8527 45.68 52.5647 45.84 52.2287 45.952C51.8927 46.064 51.5247 46.12 51.1247 46.12ZM56.6702 38.992C56.3902 38.992 56.1742 38.924 56.0222 38.788C55.8782 38.644 55.8062 38.444 55.8062 38.188C55.8062 37.932 55.8782 37.736 56.0222 37.6C56.1742 37.464 56.3902 37.396 56.6702 37.396C56.9422 37.396 57.1502 37.464 57.2942 37.6C57.4462 37.736 57.5222 37.932 57.5222 38.188C57.5222 38.444 57.4462 38.644 57.2942 38.788C57.1502 38.924 56.9422 38.992 56.6702 38.992ZM57.3062 40V46H56.0222V40H57.3062ZM61.1631 37.3V44.32C61.1631 44.616 61.2151 44.82 61.3191 44.932C61.4231 45.044 61.5951 45.1 61.8351 45.1C61.9791 45.1 62.0991 45.092 62.1951 45.076C62.2991 45.052 62.4271 45.012 62.5791 44.956L62.4351 45.916C62.2991 45.98 62.1431 46.028 61.9671 46.06C61.7911 46.1 61.6151 46.12 61.4391 46.12C60.9031 46.12 60.5071 45.984 60.2511 45.712C60.0031 45.432 59.8791 45.004 59.8791 44.428V37.3H61.1631Z" fill="black"/>
</svg>
