<svg width="83" height="54" viewBox="0 0 83 54" fill="none" xmlns="http://www.w3.org/2000/svg">
<mask id="mask0_6854_179" style="mask-type:luminance" maskUnits="userSpaceOnUse" x="32" y="16" width="19" height="10">
<path fill-rule="evenodd" clip-rule="evenodd" d="M32.1665 16.9121H50.6464V25.5151H32.1665V16.9121Z" fill="white"/>
</mask>
<g mask="url(#mask0_6854_179)">
<path fill-rule="evenodd" clip-rule="evenodd" d="M41.4077 18.6621C36.4365 18.6621 33.9165 19.5161 33.9165 21.2019C33.9165 22.9029 36.4365 23.7651 41.4077 23.7651C46.3777 23.7651 48.8965 22.9111 48.8965 21.2253C48.8965 19.5243 46.3777 18.6621 41.4077 18.6621ZM41.4077 25.5151C39.1222 25.5151 32.1665 25.5151 32.1665 21.2019C32.1665 17.3566 37.441 16.9121 41.4077 16.9121C43.6932 16.9121 50.6465 16.9121 50.6465 21.2253C50.6465 25.0706 45.3732 25.5151 41.4077 25.5151Z" fill="#61646B"/>
</g>
<mask id="mask1_6854_179" style="mask-type:luminance" maskUnits="userSpaceOnUse" x="35" y="2" width="13" height="13">
<path fill-rule="evenodd" clip-rule="evenodd" d="M35.2114 2.3335H47.6015V14.7219H35.2114V2.3335Z" fill="white"/>
</mask>
<g mask="url(#mask1_6854_179)">
<path fill-rule="evenodd" clip-rule="evenodd" d="M41.4076 3.99901C38.9098 3.99901 36.8775 6.03017 36.8775 8.52801C36.8693 11.0177 38.8865 13.0477 41.3738 13.057L41.4076 13.89V13.057C43.9043 13.057 45.9355 11.0247 45.9355 8.52801C45.9355 6.03017 43.9043 3.99901 41.4076 3.99901ZM41.4076 14.7218H41.3703C37.9613 14.7113 35.1998 11.9312 35.2115 8.52451C35.2115 5.11201 37.9905 2.33301 41.4076 2.33301C44.8236 2.33301 47.6015 5.11201 47.6015 8.52801C47.6015 11.944 44.8236 14.7218 41.4076 14.7218Z" fill="#61646B"/>
</g>
<path d="M24.1724 43.9C24.0124 44.38 23.7724 44.788 23.4524 45.124C23.1324 45.452 22.7564 45.7 22.3244 45.868C21.8924 46.036 21.4164 46.12 20.8964 46.12C20.1364 46.12 19.4764 45.956 18.9164 45.628C18.3564 45.3 17.9244 44.832 17.6204 44.224C17.3164 43.616 17.1644 42.888 17.1644 42.04C17.1644 41.192 17.3164 40.464 17.6204 39.856C17.9244 39.248 18.3564 38.78 18.9164 38.452C19.4764 38.124 20.1324 37.96 20.8844 37.96C21.4044 37.96 21.8724 38.032 22.2884 38.176C22.7124 38.32 23.0724 38.536 23.3684 38.824C23.6644 39.112 23.8924 39.472 24.0524 39.904L22.8404 40.444C22.6804 39.972 22.4484 39.628 22.1444 39.412C21.8404 39.188 21.4444 39.076 20.9564 39.076C20.4684 39.076 20.0404 39.192 19.6724 39.424C19.3044 39.656 19.0164 39.992 18.8084 40.432C18.6084 40.872 18.5084 41.408 18.5084 42.04C18.5084 42.664 18.6044 43.2 18.7964 43.648C18.9884 44.088 19.2644 44.424 19.6244 44.656C19.9844 44.888 20.4164 45.004 20.9204 45.004C21.4084 45.004 21.8284 44.88 22.1804 44.632C22.5404 44.376 22.7964 43.996 22.9484 43.492L24.1724 43.9ZM28.8355 39.88C29.4195 39.88 29.9355 40.004 30.3835 40.252C30.8315 40.5 31.1795 40.86 31.4275 41.332C31.6835 41.796 31.8115 42.352 31.8115 43C31.8115 43.648 31.6835 44.208 31.4275 44.68C31.1795 45.144 30.8315 45.5 30.3835 45.748C29.9355 45.996 29.4195 46.12 28.8355 46.12C28.2515 46.12 27.7355 45.996 27.2875 45.748C26.8395 45.5 26.4875 45.144 26.2315 44.68C25.9755 44.208 25.8475 43.648 25.8475 43C25.8475 42.352 25.9755 41.796 26.2315 41.332C26.4875 40.86 26.8395 40.5 27.2875 40.252C27.7355 40.004 28.2515 39.88 28.8355 39.88ZM28.8355 40.888C28.4755 40.888 28.1675 40.972 27.9115 41.14C27.6635 41.3 27.4715 41.536 27.3355 41.848C27.1995 42.16 27.1315 42.544 27.1315 43C27.1315 43.448 27.1995 43.832 27.3355 44.152C27.4715 44.464 27.6635 44.704 27.9115 44.872C28.1675 45.032 28.4755 45.112 28.8355 45.112C29.1955 45.112 29.4995 45.032 29.7475 44.872C29.9955 44.704 30.1875 44.464 30.3235 44.152C30.4595 43.832 30.5275 43.448 30.5275 43C30.5275 42.544 30.4595 42.16 30.3235 41.848C30.1875 41.536 29.9955 41.3 29.7475 41.14C29.4995 40.972 29.1955 40.888 28.8355 40.888ZM34.0269 46V40H35.1669L35.2509 41.56L35.0829 41.392C35.1949 41.048 35.3549 40.764 35.5629 40.54C35.7789 40.308 36.0309 40.14 36.3189 40.036C36.6149 39.932 36.9269 39.88 37.2549 39.88C37.6789 39.88 38.0589 39.964 38.3949 40.132C38.7389 40.292 39.0109 40.536 39.2109 40.864C39.4109 41.192 39.5109 41.608 39.5109 42.112V46H38.2269V42.508C38.2269 41.916 38.1029 41.508 37.8549 41.284C37.6149 41.052 37.3109 40.936 36.9429 40.936C36.6789 40.936 36.4229 41 36.1749 41.128C35.9269 41.248 35.7189 41.444 35.5509 41.716C35.3909 41.988 35.3109 42.352 35.3109 42.808V46H34.0269ZM43.7382 38.236V44.2C43.7382 44.496 43.8142 44.712 43.9662 44.848C44.1262 44.984 44.3382 45.052 44.6022 45.052C44.8182 45.052 45.0062 45.02 45.1662 44.956C45.3262 44.884 45.4742 44.788 45.6102 44.668L45.8982 45.604C45.7142 45.764 45.4862 45.892 45.2142 45.988C44.9502 46.076 44.6542 46.12 44.3262 46.12C43.9822 46.12 43.6662 46.064 43.3782 45.952C43.0902 45.84 42.8662 45.66 42.7062 45.412C42.5462 45.156 42.4622 44.824 42.4542 44.416V38.596L43.7382 38.236ZM45.8022 40V41.008H41.3022V40H45.8022ZM51.1753 42.148C51.1753 41.748 51.0633 41.44 50.8393 41.224C50.6233 41 50.3233 40.888 49.9393 40.888C49.5793 40.888 49.2713 40.972 49.0153 41.14C48.7593 41.308 48.5713 41.58 48.4513 41.956L47.3713 41.5C47.5233 41.012 47.8193 40.62 48.2593 40.324C48.7073 40.028 49.2833 39.88 49.9873 39.88C50.4673 39.88 50.8913 39.96 51.2593 40.12C51.6273 40.272 51.9153 40.504 52.1233 40.816C52.3393 41.128 52.4473 41.528 52.4473 42.016V44.692C52.4473 44.988 52.5953 45.136 52.8913 45.136C53.0353 45.136 53.1753 45.116 53.3113 45.076L53.2393 45.964C53.0553 46.052 52.8233 46.096 52.5433 46.096C52.2873 46.096 52.0553 46.052 51.8473 45.964C51.6473 45.868 51.4873 45.728 51.3673 45.544C51.2553 45.352 51.1993 45.116 51.1993 44.836V44.752L51.4633 44.74C51.3913 45.052 51.2433 45.312 51.0193 45.52C50.7953 45.72 50.5353 45.872 50.2393 45.976C49.9433 46.072 49.6433 46.12 49.3393 46.12C48.9633 46.12 48.6233 46.06 48.3193 45.94C48.0233 45.82 47.7873 45.64 47.6113 45.4C47.4433 45.152 47.3593 44.848 47.3593 44.488C47.3593 44.04 47.5033 43.672 47.7913 43.384C48.0873 43.096 48.5033 42.9 49.0393 42.796L51.3673 42.34L51.3553 43.24L49.6633 43.588C49.3273 43.652 49.0753 43.744 48.9073 43.864C48.7393 43.984 48.6553 44.16 48.6553 44.392C48.6553 44.616 48.7393 44.796 48.9073 44.932C49.0833 45.06 49.3153 45.124 49.6033 45.124C49.8033 45.124 49.9953 45.1 50.1793 45.052C50.3713 45.004 50.5433 44.928 50.6953 44.824C50.8473 44.712 50.9633 44.572 51.0433 44.404C51.1313 44.228 51.1753 44.02 51.1753 43.78V42.148ZM57.7314 39.88C58.2114 39.88 58.6194 39.952 58.9554 40.096C59.2994 40.232 59.5874 40.428 59.8194 40.684C60.0514 40.94 60.2274 41.232 60.3474 41.56L59.1354 42.04C59.0314 41.672 58.8634 41.392 58.6314 41.2C58.4074 41 58.1114 40.9 57.7434 40.9C57.3834 40.9 57.0754 40.984 56.8194 41.152C56.5634 41.312 56.3674 41.548 56.2314 41.86C56.1034 42.172 56.0394 42.556 56.0394 43.012C56.0394 43.46 56.1074 43.84 56.2434 44.152C56.3794 44.464 56.5754 44.7 56.8314 44.86C57.0874 45.02 57.3914 45.1 57.7434 45.1C58.0154 45.1 58.2514 45.056 58.4514 44.968C58.6514 44.872 58.8154 44.74 58.9434 44.572C59.0794 44.396 59.1714 44.184 59.2194 43.936L60.3834 44.332C60.2714 44.692 60.0954 45.008 59.8554 45.28C59.6234 45.544 59.3314 45.752 58.9794 45.904C58.6274 46.048 58.2234 46.12 57.7674 46.12C57.1754 46.12 56.6514 45.996 56.1954 45.748C55.7394 45.5 55.3834 45.144 55.1274 44.68C54.8794 44.208 54.7554 43.648 54.7554 43C54.7554 42.352 54.8794 41.796 55.1274 41.332C55.3834 40.86 55.7354 40.5 56.1834 40.252C56.6394 40.004 57.1554 39.88 57.7314 39.88ZM64.2296 38.236V44.2C64.2296 44.496 64.3056 44.712 64.4576 44.848C64.6176 44.984 64.8296 45.052 65.0936 45.052C65.3096 45.052 65.4976 45.02 65.6576 44.956C65.8176 44.884 65.9656 44.788 66.1016 44.668L66.3896 45.604C66.2056 45.764 65.9776 45.892 65.7056 45.988C65.4416 46.076 65.1456 46.12 64.8176 46.12C64.4736 46.12 64.1576 46.064 63.8696 45.952C63.5816 45.84 63.3576 45.66 63.1976 45.412C63.0376 45.156 62.9536 44.824 62.9456 44.416V38.596L64.2296 38.236ZM66.2936 40V41.008H61.7936V40H66.2936Z" fill="#61646B"/>
</svg>
