<svg width="152" height="54" viewBox="0 0 152 54" fill="none" xmlns="http://www.w3.org/2000/svg">
<path fill-rule="evenodd" clip-rule="evenodd" d="M75.708 18.8468C75.225 18.8468 74.833 18.4548 74.833 17.9718V9.42358C74.833 8.94058 75.225 8.54858 75.708 8.54858C76.191 8.54858 76.583 8.94058 76.583 9.42358V17.9718C76.583 18.4548 76.191 18.8468 75.708 18.8468Z" fill="#61646B"/>
<path fill-rule="evenodd" clip-rule="evenodd" d="M79.9858 14.572H71.4307C70.9465 14.572 70.5557 14.18 70.5557 13.697C70.5557 13.214 70.9465 12.822 71.4307 12.822H79.9858C80.4688 12.822 80.8608 13.214 80.8608 13.697C80.8608 14.18 80.4688 14.572 79.9858 14.572Z" fill="#61646B"/>
<path fill-rule="evenodd" clip-rule="evenodd" d="M70.2412 2.91675C67.0072 2.91675 64.9165 5.12991 64.9165 8.55758V18.8592C64.9165 22.2869 67.0072 24.5001 70.2412 24.5001H81.1752C84.4103 24.5001 86.4998 22.2869 86.4998 18.8592V8.55758C86.4998 5.12991 84.4103 2.91675 81.1752 2.91675H70.2412ZM81.1752 26.2501H70.2412C66.0097 26.2501 63.1665 23.2797 63.1665 18.8592V8.55758C63.1665 4.13708 66.0097 1.16675 70.2412 1.16675H81.1752C85.4067 1.16675 88.2498 4.13708 88.2498 8.55758V18.8592C88.2498 23.2797 85.4067 26.2501 81.1752 26.2501Z" fill="#61646B"/>
<path d="M24.2996 38.08V46H22.7756L19.7156 41.008L18.9476 39.604H18.9356L18.9836 40.888V46H17.8076V38.08H19.3196L22.3676 43.06L23.1476 44.488H23.1596L23.1116 43.192V38.08H24.2996ZM29.5855 39.88C30.1695 39.88 30.6855 40.004 31.1335 40.252C31.5815 40.5 31.9295 40.86 32.1775 41.332C32.4335 41.796 32.5615 42.352 32.5615 43C32.5615 43.648 32.4335 44.208 32.1775 44.68C31.9295 45.144 31.5815 45.5 31.1335 45.748C30.6855 45.996 30.1695 46.12 29.5855 46.12C29.0015 46.12 28.4855 45.996 28.0375 45.748C27.5895 45.5 27.2375 45.144 26.9815 44.68C26.7255 44.208 26.5975 43.648 26.5975 43C26.5975 42.352 26.7255 41.796 26.9815 41.332C27.2375 40.86 27.5895 40.5 28.0375 40.252C28.4855 40.004 29.0015 39.88 29.5855 39.88ZM29.5855 40.888C29.2255 40.888 28.9175 40.972 28.6615 41.14C28.4135 41.3 28.2215 41.536 28.0855 41.848C27.9495 42.16 27.8815 42.544 27.8815 43C27.8815 43.448 27.9495 43.832 28.0855 44.152C28.2215 44.464 28.4135 44.704 28.6615 44.872C28.9175 45.032 29.2255 45.112 29.5855 45.112C29.9455 45.112 30.2495 45.032 30.4975 44.872C30.7455 44.704 30.9375 44.464 31.0735 44.152C31.2095 43.832 31.2775 43.448 31.2775 43C31.2775 42.544 31.2095 42.16 31.0735 41.848C30.9375 41.536 30.7455 41.3 30.4975 41.14C30.2495 40.972 29.9455 40.888 29.5855 40.888ZM36.9129 46.12C36.5209 46.12 36.1569 46.048 35.8209 45.904C35.4929 45.76 35.2289 45.528 35.0289 45.208C34.8289 44.888 34.7289 44.472 34.7289 43.96V40H36.0129V43.636C36.0129 44.18 36.1289 44.556 36.3609 44.764C36.5929 44.964 36.9169 45.064 37.3329 45.064C37.5329 45.064 37.7249 45.032 37.9089 44.968C38.1009 44.896 38.2729 44.788 38.4249 44.644C38.5769 44.492 38.6929 44.3 38.7729 44.068C38.8609 43.836 38.9049 43.564 38.9049 43.252V40H40.1889V46H39.0609L39.0009 45.028C38.7929 45.404 38.5129 45.68 38.1609 45.856C37.8089 46.032 37.3929 46.12 36.9129 46.12ZM46.7428 40H48.0868L45.6988 46H44.2948L41.8948 40H43.2988L45.0028 44.884L46.7428 40ZM52.3864 46.12C51.7864 46.12 51.2584 45.996 50.8024 45.748C50.3464 45.5 49.9904 45.144 49.7344 44.68C49.4864 44.208 49.3624 43.648 49.3624 43C49.3624 42.352 49.4864 41.796 49.7344 41.332C49.9904 40.86 50.3424 40.5 50.7904 40.252C51.2384 40.004 51.7464 39.88 52.3144 39.88C52.8984 39.88 53.3944 40 53.8024 40.24C54.2104 40.48 54.5224 40.808 54.7384 41.224C54.9544 41.64 55.0624 42.112 55.0624 42.64C55.0624 42.784 55.0584 42.92 55.0504 43.048C55.0424 43.176 55.0304 43.288 55.0144 43.384H50.1904V42.4H54.4504L53.8144 42.592C53.8144 42.048 53.6784 41.632 53.4064 41.344C53.1344 41.048 52.7624 40.9 52.2904 40.9C51.9464 40.9 51.6464 40.98 51.3904 41.14C51.1344 41.3 50.9384 41.54 50.8024 41.86C50.6664 42.172 50.5984 42.556 50.5984 43.012C50.5984 43.46 50.6704 43.84 50.8144 44.152C50.9584 44.464 51.1624 44.7 51.4264 44.86C51.6904 45.02 52.0024 45.1 52.3624 45.1C52.7624 45.1 53.0864 45.024 53.3344 44.872C53.5824 44.72 53.7784 44.508 53.9224 44.236L54.9424 44.716C54.7984 45.004 54.6024 45.256 54.3544 45.472C54.1144 45.68 53.8264 45.84 53.4904 45.952C53.1544 46.064 52.7864 46.12 52.3864 46.12ZM58.5319 37.3V44.32C58.5319 44.616 58.5839 44.82 58.6879 44.932C58.7919 45.044 58.9639 45.1 59.2039 45.1C59.3479 45.1 59.4679 45.092 59.5639 45.076C59.6679 45.052 59.7959 45.012 59.9479 44.956L59.8039 45.916C59.6679 45.98 59.5119 46.028 59.3359 46.06C59.1599 46.1 58.9839 46.12 58.8079 46.12C58.2719 46.12 57.8759 45.984 57.6199 45.712C57.3719 45.432 57.2479 45.004 57.2479 44.428V37.3H58.5319ZM68.413 46.12C67.813 46.12 67.285 45.996 66.829 45.748C66.373 45.5 66.017 45.144 65.761 44.68C65.513 44.208 65.389 43.648 65.389 43C65.389 42.352 65.513 41.796 65.761 41.332C66.017 40.86 66.369 40.5 66.817 40.252C67.265 40.004 67.773 39.88 68.341 39.88C68.925 39.88 69.421 40 69.829 40.24C70.237 40.48 70.549 40.808 70.765 41.224C70.981 41.64 71.089 42.112 71.089 42.64C71.089 42.784 71.085 42.92 71.077 43.048C71.069 43.176 71.057 43.288 71.041 43.384H66.217V42.4H70.477L69.841 42.592C69.841 42.048 69.705 41.632 69.433 41.344C69.161 41.048 68.789 40.9 68.317 40.9C67.973 40.9 67.673 40.98 67.417 41.14C67.161 41.3 66.965 41.54 66.829 41.86C66.693 42.172 66.625 42.556 66.625 43.012C66.625 43.46 66.697 43.84 66.841 44.152C66.985 44.464 67.189 44.7 67.453 44.86C67.717 45.02 68.029 45.1 68.389 45.1C68.789 45.1 69.113 45.024 69.361 44.872C69.609 44.72 69.805 44.508 69.949 44.236L70.969 44.716C70.825 45.004 70.629 45.256 70.381 45.472C70.141 45.68 69.853 45.84 69.517 45.952C69.181 46.064 68.813 46.12 68.413 46.12ZM68.473 37.048H69.769L68.581 39.064H67.597L68.473 37.048ZM77.0827 40H78.4267L76.0387 46H74.6347L72.2347 40H73.6387L75.3427 44.884L77.0827 40ZM82.7262 46.12C82.1262 46.12 81.5982 45.996 81.1422 45.748C80.6862 45.5 80.3302 45.144 80.0742 44.68C79.8262 44.208 79.7022 43.648 79.7022 43C79.7022 42.352 79.8262 41.796 80.0742 41.332C80.3302 40.86 80.6822 40.5 81.1302 40.252C81.5782 40.004 82.0862 39.88 82.6542 39.88C83.2382 39.88 83.7342 40 84.1422 40.24C84.5502 40.48 84.8622 40.808 85.0782 41.224C85.2942 41.64 85.4022 42.112 85.4022 42.64C85.4022 42.784 85.3982 42.92 85.3902 43.048C85.3822 43.176 85.3702 43.288 85.3542 43.384H80.5302V42.4H84.7902L84.1542 42.592C84.1542 42.048 84.0182 41.632 83.7462 41.344C83.4742 41.048 83.1022 40.9 82.6302 40.9C82.2862 40.9 81.9862 40.98 81.7302 41.14C81.4742 41.3 81.2782 41.54 81.1422 41.86C81.0062 42.172 80.9382 42.556 80.9382 43.012C80.9382 43.46 81.0102 43.84 81.1542 44.152C81.2982 44.464 81.5022 44.7 81.7662 44.86C82.0302 45.02 82.3422 45.1 82.7022 45.1C83.1022 45.1 83.4262 45.024 83.6742 44.872C83.9222 44.72 84.1182 44.508 84.2622 44.236L85.2822 44.716C85.1382 45.004 84.9422 45.256 84.6942 45.472C84.4542 45.68 84.1662 45.84 83.8302 45.952C83.4942 46.064 83.1262 46.12 82.7262 46.12ZM82.3062 37.048L83.1822 39.064H82.1982L81.0102 37.048H82.3062ZM87.6237 46V40H88.7637L88.8477 41.56L88.6797 41.392C88.7917 41.048 88.9517 40.764 89.1597 40.54C89.3757 40.308 89.6277 40.14 89.9157 40.036C90.2117 39.932 90.5237 39.88 90.8517 39.88C91.2757 39.88 91.6557 39.964 91.9917 40.132C92.3357 40.292 92.6077 40.536 92.8077 40.864C93.0077 41.192 93.1077 41.608 93.1077 42.112V46H91.8237V42.508C91.8237 41.916 91.6997 41.508 91.4517 41.284C91.2117 41.052 90.9077 40.936 90.5397 40.936C90.2757 40.936 90.0197 41 89.7717 41.128C89.5237 41.248 89.3157 41.444 89.1477 41.716C88.9877 41.988 88.9077 42.352 88.9077 42.808V46H87.6237ZM98.2934 46.12C97.6934 46.12 97.1654 45.996 96.7094 45.748C96.2534 45.5 95.8974 45.144 95.6414 44.68C95.3934 44.208 95.2694 43.648 95.2694 43C95.2694 42.352 95.3934 41.796 95.6414 41.332C95.8974 40.86 96.2494 40.5 96.6974 40.252C97.1454 40.004 97.6534 39.88 98.2214 39.88C98.8054 39.88 99.3014 40 99.7094 40.24C100.117 40.48 100.429 40.808 100.645 41.224C100.861 41.64 100.969 42.112 100.969 42.64C100.969 42.784 100.965 42.92 100.957 43.048C100.949 43.176 100.937 43.288 100.921 43.384H96.0974V42.4H100.357L99.7214 42.592C99.7214 42.048 99.5854 41.632 99.3134 41.344C99.0414 41.048 98.6694 40.9 98.1974 40.9C97.8534 40.9 97.5534 40.98 97.2974 41.14C97.0414 41.3 96.8454 41.54 96.7094 41.86C96.5734 42.172 96.5054 42.556 96.5054 43.012C96.5054 43.46 96.5774 43.84 96.7214 44.152C96.8654 44.464 97.0694 44.7 97.3334 44.86C97.5974 45.02 97.9094 45.1 98.2694 45.1C98.6694 45.1 98.9934 45.024 99.2414 44.872C99.4894 44.72 99.6854 44.508 99.8294 44.236L100.849 44.716C100.705 45.004 100.509 45.256 100.261 45.472C100.021 45.68 99.7334 45.84 99.3974 45.952C99.0614 46.064 98.6934 46.12 98.2934 46.12ZM103.191 46V40H104.331L104.391 41.008C104.599 40.624 104.875 40.34 105.219 40.156C105.571 39.972 105.943 39.88 106.335 39.88C106.767 39.88 107.163 39.98 107.523 40.18C107.891 40.372 108.167 40.664 108.351 41.056C108.479 40.792 108.655 40.572 108.879 40.396C109.103 40.22 109.351 40.092 109.623 40.012C109.895 39.924 110.163 39.88 110.427 39.88C110.811 39.88 111.171 39.96 111.507 40.12C111.843 40.28 112.115 40.524 112.323 40.852C112.531 41.18 112.635 41.6 112.635 42.112V46H111.351V42.316C111.351 41.828 111.235 41.476 111.003 41.26C110.771 41.044 110.475 40.936 110.115 40.936C109.835 40.936 109.575 41.004 109.335 41.14C109.103 41.276 108.915 41.48 108.771 41.752C108.627 42.016 108.555 42.344 108.555 42.736V46H107.271V42.316C107.271 41.828 107.155 41.476 106.923 41.26C106.691 41.044 106.395 40.936 106.035 40.936C105.795 40.936 105.555 41 105.315 41.128C105.075 41.256 104.875 41.456 104.715 41.728C104.555 42 104.475 42.36 104.475 42.808V46H103.191ZM117.822 46.12C117.222 46.12 116.694 45.996 116.238 45.748C115.782 45.5 115.426 45.144 115.17 44.68C114.922 44.208 114.798 43.648 114.798 43C114.798 42.352 114.922 41.796 115.17 41.332C115.426 40.86 115.778 40.5 116.226 40.252C116.674 40.004 117.182 39.88 117.75 39.88C118.334 39.88 118.83 40 119.238 40.24C119.646 40.48 119.958 40.808 120.174 41.224C120.39 41.64 120.498 42.112 120.498 42.64C120.498 42.784 120.494 42.92 120.486 43.048C120.478 43.176 120.466 43.288 120.45 43.384H115.626V42.4H119.886L119.25 42.592C119.25 42.048 119.114 41.632 118.842 41.344C118.57 41.048 118.198 40.9 117.726 40.9C117.382 40.9 117.082 40.98 116.826 41.14C116.57 41.3 116.374 41.54 116.238 41.86C116.102 42.172 116.034 42.556 116.034 43.012C116.034 43.46 116.106 43.84 116.25 44.152C116.394 44.464 116.598 44.7 116.862 44.86C117.126 45.02 117.438 45.1 117.798 45.1C118.198 45.1 118.522 45.024 118.77 44.872C119.018 44.72 119.214 44.508 119.358 44.236L120.378 44.716C120.234 45.004 120.038 45.256 119.79 45.472C119.55 45.68 119.262 45.84 118.926 45.952C118.59 46.064 118.222 46.12 117.822 46.12ZM122.719 46V40H123.859L123.943 41.56L123.775 41.392C123.887 41.048 124.047 40.764 124.255 40.54C124.471 40.308 124.723 40.14 125.011 40.036C125.307 39.932 125.619 39.88 125.947 39.88C126.371 39.88 126.751 39.964 127.087 40.132C127.431 40.292 127.703 40.536 127.903 40.864C128.103 41.192 128.203 41.608 128.203 42.112V46H126.919V42.508C126.919 41.916 126.795 41.508 126.547 41.284C126.307 41.052 126.003 40.936 125.635 40.936C125.371 40.936 125.115 41 124.867 41.128C124.619 41.248 124.411 41.444 124.243 41.716C124.083 41.988 124.003 42.352 124.003 42.808V46H122.719ZM132.43 38.236V44.2C132.43 44.496 132.506 44.712 132.658 44.848C132.818 44.984 133.03 45.052 133.294 45.052C133.51 45.052 133.698 45.02 133.858 44.956C134.018 44.884 134.166 44.788 134.302 44.668L134.59 45.604C134.406 45.764 134.178 45.892 133.906 45.988C133.642 46.076 133.346 46.12 133.018 46.12C132.674 46.12 132.358 46.064 132.07 45.952C131.782 45.84 131.558 45.66 131.398 45.412C131.238 45.156 131.154 44.824 131.146 44.416V38.596L132.43 38.236ZM134.494 40V41.008H129.994V40H134.494Z" fill="#61646B"/>
</svg>
